<svg xmlns="http://www.w3.org/2000/svg" version="1.1" xmlns:xlink="http://www.w3.org/1999/xlink" width="200" height="200"><svg xmlns="http://www.w3.org/2000/svg" version="1.1" xmlns:xlink="http://www.w3.org/1999/xlink" viewBox="0 0 200 200"><rect width="200" height="200" fill="url('#gradient')"></rect><defs><linearGradient id="SvgjsLinearGradient1001" gradientTransform="rotate(360 0.5 0.5)"><stop offset="0%" stop-color="#ffffff"></stop><stop offset="100%" stop-color="#ffffff"></stop></linearGradient></defs><g><g fill="#ff0000" transform="matrix(4.772656654583118,0,0,4.772656654583118,4.879309748627861,133.9140988038279)" stroke="#760000" stroke-width="0.15"><path d="M12.96-14.22L12.96 0L9.55 0L9.55-5.94L4.50-5.94L4.50 0L1.07 0L1.07-14.22L4.50-14.22L4.50-8.57L9.55-8.57L9.55-14.22L12.96-14.22ZM20.90 0L15.13 0L15.13-14.22L20.23-14.22Q22.98-14.22 24.41-13.21Q25.84-12.21 25.84-10.29L25.84-10.29Q25.84-9.19 25.33-8.41Q24.82-7.63 23.84-7.26L23.84-7.26Q24.95-6.96 25.55-6.16Q26.14-5.36 26.14-4.21L26.14-4.21Q26.14-2.12 24.82-1.07Q23.50-0.02 20.90 0L20.90 0ZM20.96-6.04L18.55-6.04L18.55-2.64L20.80-2.64Q21.73-2.64 22.23-3.06Q22.72-3.49 22.72-4.26L22.72-4.26Q22.72-6.04 20.96-6.04L20.96-6.04ZM18.55-11.57L18.55-8.29L20.34-8.29Q21.46-8.30 21.94-8.70Q22.42-9.10 22.42-9.88L22.42-9.88Q22.42-10.78 21.90-11.18Q21.39-11.57 20.23-11.57L20.23-11.57L18.55-11.57ZM35.36-3.78L35.36-3.78Q35.36-4.53 34.83-4.95Q34.30-5.37 32.96-5.82Q31.62-6.27 30.77-6.69L30.77-6.69Q28.01-8.05 28.01-10.42L28.01-10.42Q28.01-11.60 28.70-12.50Q29.38-13.41 30.64-13.91Q31.90-14.41 33.48-14.41L33.48-14.41Q35.01-14.41 36.23-13.87Q37.44-13.32 38.12-12.31Q38.79-11.30 38.79-10L38.79-10L35.37-10Q35.37-10.87 34.84-11.35Q34.31-11.83 33.40-11.83L33.40-11.83Q32.48-11.83 31.95-11.42Q31.42-11.02 31.42-10.39L31.42-10.39Q31.42-9.84 32.00-9.40Q32.59-8.96 34.06-8.48Q35.54-8.01 36.48-7.46L36.48-7.46Q38.79-6.13 38.79-3.80L38.79-3.80Q38.79-1.93 37.38-0.87Q35.98 0.20 33.53 0.20L33.53 0.20Q31.80 0.20 30.40-0.42Q28.99-1.04 28.29-2.12Q27.58-3.20 27.58-4.61L27.58-4.61L31.02-4.61Q31.02-3.47 31.61-2.92Q32.20-2.38 33.53-2.38L33.53-2.38Q34.38-2.38 34.87-2.75Q35.36-3.12 35.36-3.78Z"></path></g></g></svg><style>@media (prefers-color-scheme: light) { :root { filter: none; } }
@media (prefers-color-scheme: dark) { :root { filter: none; } }
</style></svg>